<svg width="23" height="25" viewBox="0 0 23 25" fill="none" xmlns="http://www.w3.org/2000/svg">
<path d="M19.8643 0H2.63571C1.18286 0 0 1.15 0 2.575V19.475C0 20.9 1.18286 22.05 2.63571 22.05H17.2157L16.5343 19.7375L18.18 21.225L19.7357 22.625L22.5 25V2.575C22.5 1.15 21.3171 0 19.8643 0ZM14.9014 16.325C14.9014 16.325 14.4386 15.7875 14.0529 15.3125C15.7371 14.85 16.38 13.825 16.38 13.825C15.8529 14.1625 15.3514 14.4 14.9014 14.5625C14.2586 14.825 13.6414 15 13.0371 15.1C11.8029 15.325 10.6714 15.2625 9.70714 15.0875C8.97429 14.95 8.34429 14.75 7.81714 14.55C7.52143 14.4375 7.2 14.3 6.87857 14.125C6.84 14.1 6.80143 14.0875 6.76286 14.0625C6.73714 14.05 6.72429 14.0375 6.71143 14.025C6.48 13.9 6.35143 13.8125 6.35143 13.8125C6.35143 13.8125 6.96857 14.8125 8.60143 15.2875C8.21571 15.7625 7.74 16.325 7.74 16.325C4.89857 16.2375 3.81857 14.425 3.81857 14.425C3.81857 10.4 5.67 7.1375 5.67 7.1375C7.52143 5.7875 9.28286 5.825 9.28286 5.825L9.41143 5.975C7.09714 6.625 6.03 7.6125 6.03 7.6125C6.03 7.6125 6.31286 7.4625 6.78857 7.25C8.16429 6.6625 9.25714 6.5 9.70714 6.4625C9.78429 6.45 9.84857 6.4375 9.92571 6.4375C10.71 6.3375 11.5971 6.3125 12.5229 6.4125C13.7443 6.55 15.0557 6.9 16.3929 7.6125C16.3929 7.6125 15.3771 6.675 13.1914 6.025L13.3714 5.825C13.3714 5.825 15.1329 5.7875 16.9843 7.1375C16.9843 7.1375 18.8357 10.4 18.8357 14.425C18.8357 14.425 17.7429 16.2375 14.9014 16.325ZM8.92286 10.4875C8.19 10.4875 7.61143 11.1125 7.61143 11.875C7.61143 12.6375 8.20286 13.2625 8.92286 13.2625C9.65571 13.2625 10.2343 12.6375 10.2343 11.875C10.2471 11.1125 9.65571 10.4875 8.92286 10.4875ZM13.6157 10.4875C12.8829 10.4875 12.3043 11.1125 12.3043 11.875C12.3043 12.6375 12.8957 13.2625 13.6157 13.2625C14.3486 13.2625 14.9271 12.6375 14.9271 11.875C14.9271 11.1125 14.3486 10.4875 13.6157 10.4875Z" fill="#F5F5F5"/>
</svg>
