<svg width="151" height="96" viewBox="0 0 151 96" fill="none" xmlns="http://www.w3.org/2000/svg">
<g opacity="0.2">
<path d="M146.565 128.65L144.943 127.543L140.662 124.702C126.199 115.105 107.932 108.592 88.3312 106.038C80.5285 105.022 62.5635 105.355 54.6127 106.661C37.198 109.524 20.7147 115.798 7.40179 124.633L3.0183 127.542L1.50648 128.649L-9.78707e-05 129.756L72.6104 129.756L150.003 131.52L146.565 128.65ZM144.35 124.01C141.479 121.031 135.75 116.721 130.793 113.81L126.858 111.5L126.858 94.2622V77.0243L128.629 75.3396L130.4 73.6548V66.5005V59.3463H127.59C124.274 59.3463 123.314 60.0747 123.314 62.5913C123.314 63.4861 123.115 64.2171 122.871 64.2171C122.628 64.2171 122.428 63.1206 122.428 61.7817V59.3463H119.859C118.447 59.3463 117.052 59.586 116.76 59.8781C116.468 60.1703 116.228 61.2668 116.228 62.3136C116.228 64.0494 116.13 64.2184 115.121 64.2184C114.074 64.2184 114.014 64.0861 114.014 61.783V59.3476H111.357H108.7V61.8157C108.7 63.9276 108.588 64.2629 107.925 64.1372C107.428 64.0429 107.106 63.5136 107.029 62.666C106.727 59.3751 106.701 59.3489 103.82 59.3489C102.35 59.3489 101.171 59.5454 101.171 59.7917C101.171 60.0354 102.268 60.2345 103.607 60.2345H106.042V62.4485V64.6625H107.592H109.142V62.4485V60.2345H111.356H113.57V62.4485V64.6625H115.341H117.112V62.4485V60.2345L119.548 60.2345H121.983V62.4747V64.7149L123.866 64.5787C125.743 64.4424 125.748 64.4372 125.969 62.4498C126.186 60.5096 126.232 60.4572 127.741 60.4572H129.291V65.9922V71.5273L127.848 71.6661C126.683 71.7788 126.326 71.6072 125.994 70.7805L125.583 69.7561L125.556 70.753C125.531 71.6347 125.297 71.75 123.534 71.75C121.836 71.75 121.541 71.619 121.541 70.8644C121.541 70.377 121.342 69.9788 121.099 69.9788C120.855 69.9788 120.656 70.377 120.656 70.8644C120.656 71.619 120.361 71.75 118.663 71.75C116.9 71.75 116.667 71.6347 116.642 70.753L116.614 69.7561L116.213 70.753C115.89 71.5574 115.465 71.75 114.013 71.75C112.56 71.75 112.135 71.5574 111.812 70.753L111.411 69.7561L111.383 70.753C111.358 71.6347 111.125 71.75 109.362 71.75C107.664 71.75 107.369 71.619 107.369 70.8644C107.369 70.377 107.17 69.9788 106.926 69.9788C106.683 69.9788 106.484 70.377 106.484 70.8644C106.484 71.619 106.189 71.75 104.491 71.75C102.728 71.75 102.494 71.6347 102.469 70.753L102.442 69.7561L102.032 70.7779C101.68 71.657 101.357 71.7814 99.7354 71.6635C98.0546 71.5417 97.8489 71.4067 97.8489 70.4203C97.8489 69.6002 98.0677 69.3316 98.6939 69.3866C100.578 69.5504 101.486 68.8036 101.415 67.149C101.317 64.897 100.727 64.6009 100.727 66.8032C100.727 68.6163 100.701 68.6477 99.1773 68.6477C97.6353 68.6477 97.6275 68.6373 97.6275 66.6551V64.6625H99.3987C100.373 64.6625 101.17 64.4857 101.17 64.2695C101.17 64.0533 100.821 63.904 100.394 63.9367C99.8087 63.9826 99.586 63.604 99.4852 62.3843C99.3162 60.3511 98.3323 59.4524 96.0777 59.2703C93.4588 59.058 93.4497 57.7401 96.0554 56.1038C97.1519 55.4161 98.5524 54.254 99.1668 53.523C100.279 52.2025 100.284 52.1435 100.284 43.5927C100.284 35.71 100.22 34.9882 99.5087 34.9567C96.941 34.8415 92.906 35.1166 92.2837 35.4506C91.6758 35.7755 90.202 33.7174 83.5194 23.2107L75.4847 10.579V5.51297V0.44825L71.3881 0.463971L67.2915 0.479691L68.6029 1.55133C69.3235 2.14086 69.8226 2.69371 69.7099 2.78148C69.5973 2.86925 68.9304 3.37625 68.2282 3.90814L66.9509 4.87628L70.3322 4.87628L73.7174 4.87628V7.51475C73.7174 10.1467 73.6978 10.186 66.1898 22.5897C62.0487 29.4296 58.6621 35.2109 58.6621 35.4349C58.6621 35.6589 59.0604 36.0572 59.5477 36.3179C60.267 36.7031 60.4333 37.2454 60.4333 39.2118C60.4333 40.5429 60.6325 41.6315 60.8761 41.6315C61.1264 41.6315 61.319 40.3765 61.319 38.7533V35.8751H64.8614H68.4038V38.7533C68.4038 41.3892 68.4824 41.6315 69.3405 41.6315C70.2169 41.6315 70.2654 41.4455 70.0964 38.7834C69.9968 37.2166 70.0728 36.0336 70.2667 36.1528C70.4593 36.272 70.6178 37.5533 70.6178 39.0009C70.6178 41.0446 70.7658 41.6315 71.282 41.6315C71.8047 41.6315 71.9462 41.0171 71.9462 38.7533V35.8751H75.4886L79.0311 35.8751V38.7533C79.0311 41.0171 79.1726 41.6315 79.6953 41.6315C80.201 41.6315 80.3608 41.0747 80.366 39.3062C80.37 38.0275 80.5665 36.6821 80.8023 36.3166C81.1023 35.8515 81.2333 36.5485 81.2385 38.642C81.2425 40.3346 81.4377 41.6315 81.6879 41.6315C81.9381 41.6315 82.1307 40.3765 82.1307 38.7533V35.8751H85.6731H89.2155V38.7533V41.6315H91.2081H93.2008V38.7533V35.8751H96.0803L98.9585 35.8751V43.1813V50.4876L96.4812 50.4876C94.3759 50.4876 93.9698 50.354 93.7719 49.602C93.6449 49.1146 93.3645 48.7164 93.1497 48.7164C92.9348 48.7164 92.758 49.1146 92.758 49.602C92.758 50.3802 92.4632 50.4876 90.3225 50.4876C88.1819 50.4876 87.8871 50.3802 87.8871 49.602C87.8871 48.4544 87.1731 48.4544 86.8731 49.602C86.6766 50.354 86.2692 50.4876 84.1639 50.4876C81.9826 50.4876 81.6866 50.3815 81.6866 49.602C81.6866 49.1146 81.4874 48.7164 81.2438 48.7164C81.0001 48.7164 80.801 49.1146 80.801 49.602C80.801 50.3893 80.5062 50.4876 78.1441 50.4876C75.7821 50.4876 75.4873 50.3893 75.4873 49.602C75.4873 49.1146 75.2882 48.7164 75.0445 48.7164C74.8009 48.7164 74.6017 49.1146 74.6017 49.602C74.6017 50.3815 74.307 50.4876 72.1519 50.4876C70.0401 50.4876 69.6523 50.354 69.3457 49.5234L68.9894 48.5592L68.7379 49.5234C68.5164 50.3684 68.1798 50.4876 66.009 50.4876C63.8277 50.4876 63.5316 50.3815 63.5316 49.602C63.5316 49.1146 63.3325 48.7164 63.0888 48.7164C62.8452 48.7164 62.646 49.1146 62.646 49.602C62.646 50.3697 62.3513 50.4876 60.432 50.4876C58.2665 50.4876 58.218 50.4575 58.218 49.1592C58.218 47.8439 58.2429 47.8308 60.6534 47.8308C61.9936 47.8308 63.0888 47.6316 63.0888 47.388C63.0888 47.1443 61.9923 46.9452 60.6534 46.9452H58.218V41.4101V35.8751L54.428 35.8751H50.638L50.7755 44.5674L50.9131 53.2597L53.3681 55.5274C56.4651 58.3886 56.5031 59.0777 53.5738 59.2624C50.9118 59.4301 49.8991 60.241 49.7196 62.3463C49.6449 63.2149 49.3358 64.0075 49.0318 64.107C48.6336 64.2381 48.4777 63.5961 48.4777 61.8157V59.3436H45.9086C44.4964 59.3436 43.1011 59.5834 42.809 59.8755C42.5169 60.1677 42.2771 61.2642 42.2771 62.3109C42.2771 63.9197 42.1395 64.2158 41.3915 64.2158C40.6133 64.2158 40.5059 63.921 40.5059 61.7804V59.345H37.8491C36.3726 59.345 35.1923 59.5415 35.1923 59.7878C35.1923 60.0314 36.2888 60.2306 37.6277 60.2306H40.0631L40.0631 62.4446V64.6586H41.6129H43.1627V62.4446L43.1627 60.2306H45.5981H48.0335L48.0335 62.4446V64.6586H49.8048H51.576V62.4446L51.576 60.2306H53.5686H55.5612L55.5612 65.3228C55.5612 68.1237 55.611 70.5644 55.6725 70.7478C55.7341 70.9312 55.0948 71.146 54.2524 71.226C53.1769 71.3281 52.552 71.1382 52.1485 70.5879C51.6244 69.8713 51.576 69.8674 51.576 70.5526C51.576 71.1447 51.1594 71.3019 49.5833 71.3019C48.1069 71.3019 47.5907 71.1303 47.5907 70.6377C47.5907 70.2722 47.3916 69.9735 47.1479 69.9735C46.9043 69.9735 46.7051 70.2722 46.7051 70.6377C46.7051 71.6701 42.8535 71.5666 42.5824 70.5264C42.3898 69.7888 42.378 69.7888 42.3282 70.5264C42.2863 71.1526 41.8579 71.3019 40.0945 71.3019C38.3888 71.3019 37.8687 71.1329 37.7102 70.5264C37.5176 69.7888 37.5058 69.7888 37.4561 70.5264C37.3866 71.5731 33.4197 71.6819 33.4197 70.6377C33.4197 70.2722 33.2206 69.9735 32.9769 69.9735C32.7333 69.9735 32.5341 70.2722 32.5341 70.6377C32.5341 71.6701 28.6825 71.5666 28.4113 70.5264C28.2188 69.7888 28.207 69.7888 28.1572 70.5264C28.0786 71.7107 24.5637 71.6491 24.5637 70.4635C24.5637 69.4744 25.2515 69.139 26.9035 69.3211C27.565 69.3932 28.1061 69.2713 28.1061 69.0486C28.1061 68.8259 27.3096 68.6451 26.3349 68.6451H24.5637V66.6525C24.5637 64.7333 24.6135 64.6599 25.8921 64.6599C26.6231 64.6599 27.2205 64.4673 27.2205 64.2315C27.2205 63.9957 26.9218 63.9171 26.5563 64.0573C26.0375 64.2564 25.8895 63.9367 25.8777 62.6044C25.8554 59.8952 25.1598 59.3463 21.747 59.3463H18.8072V66.4101V73.474L20.4252 75.0448C21.3147 75.9094 22.2147 76.6156 22.423 76.6156C22.6326 76.6156 22.7505 84.2231 22.6877 93.5207L22.5711 110.426L18.8911 112.54C13.9364 115.388 9.83196 118.501 6.62884 121.842C4.95065 123.593 4.54191 124.175 5.52184 123.422C15.9565 115.403 28.241 109.784 42.4985 106.509C53.4232 103.999 68.8152 102.816 80.6975 103.57C104.804 105.103 124.823 111.47 141.66 122.959L146.565 126.306L144.35 124.01ZM122.269 109.515C119.903 108.311 112.526 105.8 106.949 104.301C102.89 103.21 101.841 102.8 103.055 102.776C105.705 102.727 104.973 101.859 102.28 101.859H99.8441V97.8963V93.9334L102.065 93.7997C105.589 93.5875 104.898 92.7949 101.062 92.6508L97.6301 92.5211V89.0822C97.6301 87.0293 97.8528 85.338 98.1843 84.886C98.6389 84.2637 98.7096 84.8009 98.5812 87.9018L98.4253 91.6748H101.619H104.813L104.647 88.3931C104.45 84.5048 103.646 83.2615 101.326 83.2615H99.8441V80.1619V77.0623H109.808C116.156 77.0623 119.773 76.9012 119.773 76.6195C119.773 76.3378 116.156 76.1767 109.808 76.1767C101.247 76.1767 99.8441 76.0837 99.8441 75.5125C99.8441 74.9374 101.567 74.8483 112.687 74.8483H125.529V92.8132L125.529 110.778L124.532 110.47C123.985 110.299 122.966 109.87 122.269 109.515ZM119.109 101.858C118.958 101.614 117.451 101.415 115.761 101.415C114.007 101.415 112.688 101.605 112.688 101.858C112.688 102.115 114.099 102.301 116.035 102.301C118.154 102.301 119.282 102.138 119.109 101.858ZM111.137 97.8727C111.307 97.5963 110.403 97.4299 108.728 97.4299C107.234 97.4299 106.045 97.6264 106.045 97.8727C106.045 98.1164 107.129 98.3155 108.454 98.3155C109.778 98.3155 110.986 98.1164 111.137 97.8727ZM119.11 93.4421C119.533 92.7569 118.376 92.4988 115.551 92.6469C113.989 92.7281 112.907 92.9993 112.795 93.3347C112.569 94.0237 118.686 94.1272 119.11 93.4421ZM118.887 88.3525C118.887 84.5624 118.103 83.2602 115.819 83.2602C113.693 83.2602 112.687 84.9856 112.687 88.6341V91.6748H115.786H118.886L118.887 88.3525ZM111.119 89.9324C111.504 89.3101 110.913 89.1424 108.518 89.1922C107.205 89.2197 106.267 89.4582 106.156 89.7909C105.933 90.4564 110.71 90.5927 111.119 89.9324ZM119.588 80.6388C120.323 79.9038 118.885 79.7165 112.492 79.7165C108.116 79.7165 105.101 79.8934 104.938 80.1593C104.787 80.403 104.825 80.6165 105.023 80.6349C106.579 80.7803 119.444 80.7829 119.588 80.6388ZM33.1525 102.923C33.2953 102.551 34.021 102.301 34.9551 102.301C35.8158 102.301 36.5194 102.102 36.5194 101.858C36.5194 101.614 35.7228 101.415 34.7481 101.415H32.9769V97.6513V93.8875H34.7481C36.0281 93.8875 36.5194 93.7028 36.5194 93.2233C36.5194 92.8578 36.37 92.5591 36.1866 92.5604C36.0045 92.5604 35.9089 91.2163 35.977 89.5708C36.1119 86.2511 35.525 84.6175 33.9464 83.9231C33.1682 83.5812 32.9678 83.179 33.0686 82.1519C33.2141 80.6597 32.9704 80.7082 40.6159 80.6375C42.8797 80.6165 44.4911 80.4174 44.4911 80.1593C44.4911 79.8868 42.2771 79.7165 38.7347 79.7165H32.9782V78.3881V77.0597H44.271C51.5039 77.0597 55.5638 76.8999 55.5638 76.6169C55.5638 76.3339 51.5039 76.1741 44.271 76.1741C33.2743 76.1741 32.9782 76.1505 32.9782 75.2885C32.9782 74.4264 33.273 74.4029 44.2186 74.4029C55.087 74.4029 55.4669 74.4317 55.6909 75.2885C55.8743 75.992 56.2948 76.1741 57.7359 76.1741C60.132 76.1741 60.0757 76.9706 57.6665 77.1448C55.9267 77.2706 55.7878 77.3728 55.835 78.4994C55.8835 79.6654 55.7957 79.7178 53.7572 79.7178C51.783 79.7178 50.0969 80.5523 51.8838 80.6453C52.324 80.6689 53.3826 80.7187 54.2354 80.7567C55.7328 80.8235 55.7865 80.8851 55.8049 82.5973C55.8245 84.3581 55.8363 84.3699 57.6874 84.5048C60.0587 84.6777 60.1333 85.4756 57.7791 85.4756C56.6787 85.4756 55.9922 85.6852 55.9673 86.0297C55.945 86.3337 55.8953 87.1668 55.856 87.8808C55.7918 89.0612 55.645 89.1752 54.2354 89.1503C51.0166 89.094 51.1358 89.1778 51.1358 86.9441C51.1358 84.4458 49.8834 82.8187 47.9589 82.8187C45.6793 82.8187 44.9365 84.1262 44.9365 88.1324V91.6748L48.0362 91.6748C50.4965 91.6748 51.1358 91.5372 51.1358 91.0106C51.1358 90.4997 51.7044 90.3464 53.5987 90.3464C55.6791 90.3464 56.0498 90.4669 55.983 91.1219C55.8127 92.7936 56.0145 93.0045 57.7778 93.0045C58.7525 93.0045 59.549 93.2036 59.549 93.4473C59.549 93.691 58.7643 93.8901 57.804 93.8901C56.1075 93.8901 56.0551 93.936 55.9215 95.5513L55.7839 97.2124L53.4585 97.3461C52.1799 97.4194 51.1332 97.6579 51.1332 97.8766C51.1332 98.0954 52.1799 98.3339 53.4585 98.4072C55.7079 98.5369 55.7839 98.5828 55.7839 99.8496C55.7839 101.516 54.973 101.76 49.2519 101.819C45.9885 101.851 44.9339 102.006 44.9339 102.449C44.9339 102.826 43.1614 103.479 39.9517 104.282C37.2111 104.967 34.5713 105.674 34.0839 105.854C33.3385 106.127 33.1761 105.97 33.0568 104.865C32.9769 104.137 33.0202 103.266 33.1525 102.923ZM43.1614 97.8727C43.1614 97.629 42.0649 97.4299 40.726 97.4299C39.3871 97.4299 38.2906 97.629 38.2906 97.8727C38.2906 98.1164 39.3871 98.3155 40.726 98.3155C42.0649 98.3155 43.1614 98.1164 43.1614 97.8727ZM51.1319 93.2233C51.1319 92.6338 50.6131 92.5407 47.9209 92.6508C46.1549 92.7228 44.7099 92.9796 44.7099 93.2233C44.7099 93.467 46.1549 93.725 47.9209 93.7958C50.6131 93.9058 51.1319 93.8128 51.1319 93.2233ZM43.1614 89.9494C43.1614 89.732 42.8457 89.4333 42.4605 89.2852C40.9592 88.7088 38.2893 89.1346 38.2893 89.9494C38.2893 90.1669 39.3858 90.3451 40.7247 90.3451C42.0636 90.3451 43.1614 90.1669 43.1614 89.9494ZM88.4413 101.128C86.3478 100.877 86.1159 100.742 86.1159 99.7684C86.1159 98.7976 85.9797 98.7177 84.7875 98.9797L83.4591 99.2719V96.3688V93.4657L84.7875 93.7316C86.1146 93.9975 86.1159 93.9949 86.1159 91.8936C86.1159 89.7922 86.1146 89.7909 84.7875 90.0556L83.4591 90.3215V87.4538V84.586H84.7875C86.0425 84.586 86.1159 84.4878 86.1159 82.8148C86.1159 81.1628 86.0334 81.0475 84.8975 81.1039C83.8534 81.1549 83.822 81.1916 84.6761 81.3567C85.4386 81.5034 85.6731 81.8532 85.6731 82.8463C85.6731 83.9284 85.4923 84.1445 84.5858 84.1445C83.6753 84.1445 83.4538 83.876 83.218 82.4834C82.7634 79.7859 82.5774 79.3484 81.0512 77.3466C79.8354 75.7535 79.6848 75.316 80.1368 74.6989C80.8363 73.7426 81.0512 73.7649 82.1975 74.9112C83.1159 75.8295 83.1211 75.8859 82.3337 76.461C81.8844 76.7898 81.7298 77.0584 81.9905 77.0584C82.2512 77.0584 82.7176 76.7518 83.0281 76.3785C83.501 75.8099 83.3883 75.485 82.3429 74.3937C81.3119 73.3168 80.9765 73.1845 80.421 73.6352C79.8603 74.0911 79.7961 74.0531 80.0385 73.4085C80.2507 72.8439 79.9665 72.4496 78.9747 71.9373C77.4144 71.1303 76.3507 71.3674 76.424 72.5059C76.4725 73.2448 76.4882 73.2461 76.6782 72.5203C76.9153 71.6111 77.2677 71.5666 78.769 72.2504C79.7005 72.6749 79.804 72.8963 79.4097 73.6325C79.0717 74.264 79.0769 74.4251 79.428 74.2077C79.6953 74.0426 79.9154 74.1055 79.9154 74.3491C79.9154 75.2099 79.1988 75.2072 76.6101 74.3321C72.6458 72.9932 68.9566 74.0596 66.2697 77.3204C64.3164 79.6903 63.9771 81.789 63.9391 91.7573C63.9194 96.7028 63.8041 100.501 63.681 100.197C63.5578 99.8928 63.0928 99.6426 62.646 99.6426C62.1993 99.6426 61.7342 99.8915 61.6111 100.197C61.4879 100.502 61.3713 100.281 61.353 99.7055C61.3229 98.8068 61.4735 98.7007 62.4246 98.9391C63.0626 99.0989 63.5316 99.0256 63.5316 98.7662C63.5316 98.5186 63.0338 98.3155 62.4246 98.3155C61.408 98.3155 61.3176 98.1531 61.3176 96.3229C61.3176 94.46 61.3975 94.3264 62.536 94.2635L63.7544 94.1967L62.536 94.012C61.4185 93.843 61.3176 93.6661 61.3176 91.8634C61.3176 90.0333 61.4002 89.8957 62.536 89.8341L63.7544 89.7673L62.536 89.5826C61.4185 89.4136 61.3176 89.2368 61.3176 87.4354C61.3176 85.6367 61.4106 85.4716 62.4246 85.4716C63.0338 85.4716 63.5316 85.2502 63.5316 84.9803C63.5316 84.6777 63.1072 84.5965 62.4246 84.7668C61.3674 85.0314 61.3176 84.9555 61.3176 83.0716C61.3176 81.1785 61.3753 81.0908 62.7574 80.9165C64.0648 80.7514 64.1055 80.703 63.2002 80.3938C62.0775 80.01 61.9674 79.389 62.726 77.7239C63.1701 76.7492 63.4504 76.6169 64.6085 76.8383C65.9042 77.0859 65.9278 77.0662 65.0985 76.406C64.2469 75.7286 64.26 75.6828 65.6762 74.281C67.0754 72.8963 67.1448 72.8779 67.7592 73.702C68.109 74.171 68.5335 74.4173 68.7025 74.2483C68.8715 74.0793 68.7759 73.7072 68.4916 73.4229C68.0946 73.026 68.2584 72.7155 69.1859 72.105C69.8527 71.6648 70.1593 71.3046 69.8671 71.3019C69.4741 71.2993 69.3457 69.3958 69.3719 63.9852L69.4086 56.6711L81.1953 56.789L92.982 56.9069V66.4285V75.9501L91.5422 76.0889C90.7509 76.1649 90.1025 76.402 90.1025 76.6143C90.1025 76.8265 90.7496 77.0636 91.5422 77.1396L92.982 77.2785V80.8209V84.3633L91.5422 84.5022C90.7509 84.5782 90.1025 84.8153 90.1025 85.0275C90.1025 85.2397 90.7496 85.4769 91.5422 85.5528C92.9715 85.6904 92.982 85.7088 93.1169 88.3302C93.3147 92.1752 93.016 92.998 91.423 92.998C89.64 92.998 89.7369 93.7919 91.5422 93.9661L92.982 94.105L93.1143 97.1614C93.3121 101.758 93.358 101.719 88.4413 101.128ZM86.1159 96.3229C86.1159 94.7063 85.9692 94.3369 85.3403 94.3657C84.8779 94.3866 84.7888 94.4901 85.1189 94.6238C86.0006 94.9788 85.8172 97.7705 84.8975 98.0103C84.3146 98.1622 84.3696 98.2251 85.1189 98.2644C86.0137 98.3103 86.1159 98.1098 86.1159 96.3229ZM63.3469 97.2714C63.7662 96.1775 63.36 95.0168 62.4993 94.8504C61.8377 94.7233 61.7238 94.9473 61.8404 96.1395C61.9923 97.6867 62.9212 98.3836 63.3469 97.2714ZM62.9788 93.1263C63.774 92.8408 63.6627 90.932 62.8321 90.6136C61.7879 90.2128 61.7617 90.239 61.7617 91.6473C61.7604 93.0412 62.0919 93.4447 62.9788 93.1263ZM86.1159 87.4669C86.1159 85.5738 86.0556 85.4769 84.8975 85.5345C83.7905 85.5895 83.7748 85.6131 84.7194 85.7926C85.6364 85.9668 85.7399 86.1948 85.5932 87.7249C85.5028 88.6787 85.5827 89.4595 85.7714 89.4595C85.9613 89.4595 86.1172 88.5621 86.1159 87.4669ZM63.2277 88.7298C63.3954 88.5621 63.5316 87.8612 63.5316 87.1708C63.5316 86.1987 63.326 85.9157 62.6185 85.9157C61.8587 85.9157 61.7277 86.1515 61.843 87.3214C61.9779 88.6931 62.6159 89.3416 63.2277 88.7298ZM63.5316 82.8161C63.5316 81.7825 63.3351 81.4877 62.646 81.4877C61.9569 81.4877 61.7604 81.7825 61.7604 82.8161C61.7604 83.8498 61.9569 84.1445 62.646 84.1445C63.3351 84.1445 63.5316 83.8498 63.5316 82.8161ZM85.2303 80.1593C86.0399 79.6366 85.3404 79.6366 84.1233 80.1593C83.539 80.4108 83.4643 80.5484 83.9019 80.5641C84.2674 80.5772 84.8661 80.3951 85.2303 80.1593ZM64.3832 78.9501C65.0867 77.4055 64.2221 76.423 63.2801 77.6977C62.481 78.7811 62.4718 79.5554 63.2552 79.8554C63.6194 79.9955 64.074 79.63 64.3832 78.9501ZM84.9762 78.3881C84.5399 76.7086 84.0774 76.4439 82.956 77.23C82.394 77.623 82.1385 77.9453 82.3875 77.9453C82.6364 77.9453 83.0621 77.7239 83.332 77.454C83.6923 77.0937 84.0159 77.3007 84.5438 78.2296C85.2133 79.406 85.2434 79.4178 84.9762 78.3881ZM67.2509 75.5099C67.9544 74.978 67.9977 74.7605 67.5169 74.1802C67.002 73.5592 66.8356 73.5867 65.9147 74.4526C64.3177 75.9527 65.4653 76.8606 67.2509 75.5099ZM75.8712 72.0775C75.9288 70.9207 75.8319 70.8591 73.9388 70.8591C71.8519 70.8591 71.7445 70.9692 72.4296 72.4089C72.8213 73.2343 72.8371 73.2264 72.6615 72.2976C72.4964 71.4251 72.6563 71.3006 73.9506 71.3006C75.131 71.3006 75.4664 71.5011 75.6196 72.2976C75.7834 73.1531 75.8188 73.1216 75.8712 72.0775ZM71.4654 72.6316C71.4785 72.2661 71.2964 71.6688 71.0606 71.3032C70.5379 70.4936 70.5379 71.1932 71.0606 72.4103C71.3108 72.9932 71.4484 73.0692 71.4654 72.6316ZM92.3165 71.746C92.3165 71.4749 90.1758 71.3032 86.7814 71.3032C83.3857 71.3032 81.2464 71.4749 81.2464 71.746C81.2464 72.0172 83.387 72.1888 86.7814 72.1888C90.1758 72.1888 92.3165 72.0172 92.3165 71.746ZM87.0028 62.7354C87.0028 59.7642 86.8509 58.91 86.2273 58.3742C85.0141 57.3327 83.9831 57.1126 82.8119 57.6471C81.418 58.2825 80.8023 60.1126 80.8023 63.6184V66.4311H83.9019H87.0015L87.0028 62.7354ZM79.9167 65.9883C79.9167 65.7446 79.4188 65.5455 78.8097 65.5455C78.2005 65.5455 77.7027 65.7446 77.7027 65.9883C77.7027 66.232 78.2005 66.4311 78.8097 66.4311C79.4188 66.4311 79.9167 66.232 79.9167 65.9883ZM76.817 62.9372C76.817 58.7528 76.0703 57.427 73.7174 57.427C71.3645 57.427 70.6178 58.7541 70.6178 62.9372V66.4311H73.7174H76.817V62.9372ZM92.0951 60.6747C92.2627 60.4035 91.5737 60.2319 90.3239 60.2319C89.0727 60.2319 88.3849 60.4035 88.5526 60.6747C88.7033 60.9183 89.4998 61.1175 90.3239 61.1175C91.1479 61.1175 91.9444 60.9183 92.0951 60.6747ZM79.9167 60.6747C79.9167 60.431 79.4188 60.2319 78.8097 60.2319C78.2005 60.2319 77.7027 60.431 77.7027 60.6747C77.7027 60.9183 78.2005 61.1175 78.8097 61.1175C79.4188 61.1175 79.9167 60.9183 79.9167 60.6747ZM84.16 100.704C83.1971 100.334 83.2822 99.7933 84.3447 99.5156C85.2997 99.2653 85.8958 99.8116 85.4517 100.53C85.1307 101.05 85.0783 101.056 84.16 100.704ZM84.16 93.1761C82.677 92.6076 83.5626 90.3451 85.267 90.3451C85.491 90.3451 85.6731 91.042 85.6731 91.8949C85.6731 93.4604 85.4334 93.6648 84.16 93.1761ZM29.0061 89.7909C29.0153 88.0249 29.2642 86.1437 29.5603 85.6118C30.0123 84.7969 30.0987 85.3066 30.0987 88.8215C30.0987 91.8687 29.9494 93.0006 29.5446 93.0006C29.1502 93.0006 28.9943 92.073 29.0061 89.7909ZM56.6682 71.746C56.8267 71.4893 59.2556 71.3032 62.4508 71.3032C65.8282 71.3032 67.9597 71.4749 67.9597 71.746C67.9597 72.0185 65.7365 72.1888 62.177 72.1888C58.4342 72.1888 56.49 72.0316 56.6682 71.746ZM59.9892 62.721C59.9892 59.7995 60.1464 58.8825 60.7255 58.403C61.3936 57.8515 61.4133 57.8882 60.9272 58.8C60.6154 59.3856 60.4464 61.048 60.5224 62.7852L60.6534 65.7656L63.5316 66.0211L66.4099 66.2765L63.1989 66.3525L59.9879 66.4285V62.721H59.9892ZM56.004 54.9182C56.004 54.047 56.2988 54.0326 74.3554 54.0326C86.112 54.0326 92.8051 54.1911 92.9807 54.4754C93.1313 54.7191 93.1313 55.1174 92.9807 55.361C92.8051 55.6453 86.112 55.8038 74.3554 55.8038C56.2988 55.8038 56.004 55.7894 56.004 54.9182ZM75.0458 34.2611L68.1824 33.9794L71.5034 33.175C73.3296 32.7322 76.0703 32.2344 77.5926 32.068C79.1149 31.9017 80.3608 31.6121 80.3608 31.4222C80.3608 30.885 73.9179 30.4147 70.4973 30.7016C68.8007 30.8444 67.5051 30.8693 67.6151 30.758C68.2662 30.1069 74.4982 28.3357 77.062 28.0736C79.6258 27.8103 79.9219 27.699 79.0062 27.3348C78.4114 27.0989 76.0323 26.8946 73.7187 26.8802L69.5121 26.854L71.3645 26.0457C72.3838 25.6015 74.4615 25.1076 75.9838 24.9478C78.3145 24.7041 78.5817 24.5941 77.6751 24.2522C77.083 24.0282 75.0629 23.9129 73.1842 23.9941L69.7689 24.1421L71.1903 23.3836C71.9724 22.967 73.5628 22.4901 74.7262 22.3264C75.8895 22.1626 76.9323 21.877 77.0463 21.6923C77.3424 21.2128 73.6061 20.7242 72.106 21.0464C70.8955 21.3071 70.8785 21.2888 71.7065 20.6194C72.5777 19.9159 74.9581 19.1141 76.5983 18.9713C77.0856 18.9294 76.2878 18.7709 74.8271 18.6189C73.3349 18.4643 72.4611 18.2115 72.8344 18.0425C73.2 17.8774 74.096 17.4988 74.8271 17.204L76.1555 16.6669L74.3843 16.3747L72.613 16.0826L74.0528 15.7367C75.6838 15.3437 75.9891 14.6153 74.5218 14.6153C73.5733 14.6153 73.5707 14.6009 74.4105 13.9655C75.2502 13.3301 75.2476 13.3144 74.2965 13.3013C73.4017 13.2882 73.3624 13.1756 73.8 11.9205C74.1891 10.8056 74.3764 10.6628 74.8192 11.145C75.6838 12.0882 88.3339 34.024 88.3339 34.5821C88.3339 34.9371 87.388 35.0052 85.1229 34.8126C83.3543 34.6659 78.8215 34.417 75.0458 34.2611ZM125.301 69.1691C125.427 69.0434 125.502 68.0281 125.466 66.9119L125.404 64.8826L125.134 66.6538C124.873 68.3661 124.797 68.4342 122.871 68.691C121.775 68.8377 121.078 69.0054 121.321 69.0643C122.326 69.308 125.089 69.3814 125.301 69.1691ZM119.588 69.1259C119.981 68.7329 119.748 65.104 119.33 65.104C119.086 65.104 118.887 65.9005 118.887 66.8752V68.6464H117.116C116.141 68.6464 115.345 68.7997 115.345 68.987C115.344 69.3329 119.251 69.4613 119.588 69.1259ZM113.416 68.8573C113.536 68.5482 113.553 67.5276 113.456 66.5883L113.279 64.8813L113.204 66.7639L113.13 68.6464H111.064C108.561 68.6464 108.73 69.0421 111.327 69.2622C112.557 69.3657 113.275 69.2268 113.416 68.8573ZM107.262 69.2006C107.925 68.9779 108.029 65.1027 107.373 65.1027C107.129 65.1027 106.93 65.8992 106.93 66.8739V68.6451H105.086C104.07 68.6451 103.355 68.7604 103.495 68.9006C103.823 69.2281 106.539 69.4443 107.262 69.2006ZM52.3083 68.9779C52.421 68.7958 51.6166 68.6451 50.5201 68.6451H48.5261L48.3427 66.7626C48.1763 65.0555 48.1632 65.0844 48.2065 67.0809L48.2536 69.2818L50.1781 69.2962C51.2367 69.3041 52.1943 69.16 52.3083 68.9779ZM46.0671 69.0434C46.2021 68.8246 45.416 68.6451 44.3195 68.6451H42.3256L42.1566 66.7626L41.9876 64.88L41.9103 66.984C41.8684 68.1407 41.9823 69.1023 42.1644 69.1194C44.9509 69.3932 45.8614 69.3761 46.0671 69.0434ZM40.0618 68.9962C40.0618 68.8036 39.2653 68.6451 38.2906 68.6451H36.5194V66.8739C36.5194 65.8992 36.3202 65.1027 36.0766 65.1027C35.5696 65.1027 35.4608 69.0643 35.9665 69.1338C37.6054 69.3604 40.0618 69.2779 40.0618 68.9962ZM34.1219 69.025C34.2503 68.8167 33.459 68.6451 32.3625 68.6451H30.3686L30.1852 66.7626C30.0149 65.0202 30.0044 65.0411 30.0489 67.0534L30.0961 69.2268L31.9918 69.3146C33.0346 69.3643 33.9935 69.2333 34.1219 69.025ZM35.6324 64.3376C35.6324 64.1306 35.0848 63.9695 34.4141 63.9787C33.3791 63.9931 33.1787 63.7979 33.0752 62.6673C32.7739 59.3725 32.7477 59.3463 29.8668 59.3463C28.3969 59.3463 27.2179 59.5428 27.2179 59.7891C27.2179 60.0327 28.3026 60.2319 29.6297 60.2319H32.0415L32.1765 62.3358C32.3101 64.4188 32.3271 64.4411 33.9726 64.5774C34.8857 64.652 35.6324 64.5446 35.6324 64.3376ZM94.0877 47.3893C94.0877 47.1456 92.9911 46.9465 91.6523 46.9465H89.2168V44.7587C89.2168 43.5547 89.0177 42.4477 88.774 42.297C88.4963 42.1254 88.3312 43.104 88.3312 44.9277V47.8321H91.2094C92.8326 47.8321 94.0877 47.6395 94.0877 47.3893ZM86.1172 47.3893C86.1172 47.1456 85.0207 46.9465 83.6818 46.9465H81.2464V44.7587C81.2464 43.5547 81.0473 42.4477 80.8036 42.297C80.5258 42.1254 80.3608 43.104 80.3608 44.9277V47.8321H83.239C84.8622 47.8321 86.1172 47.6395 86.1172 47.3893ZM78.1455 47.4129C78.1455 47.1823 77.0987 46.9334 75.8201 46.8587L73.4947 46.7251L73.2641 44.2897C73.0375 41.9027 73.0283 41.8896 72.8213 43.6254C72.7047 44.6001 72.6733 45.9443 72.7493 46.615C72.8842 47.7915 72.9799 47.8334 75.5175 47.8334C76.9625 47.8321 78.1455 47.6434 78.1455 47.4129ZM70.6178 47.3893C70.6178 47.1456 69.5213 46.9465 68.1824 46.9465H65.747V44.5111C65.747 43.1709 65.5478 42.0756 65.3042 42.0756C65.0539 42.0756 64.8614 43.3307 64.8614 44.9539V47.8321H67.7396C69.3628 47.8321 70.6178 47.6395 70.6178 47.3893Z" fill="black"/>
</g>
</svg>
