<svg width="200" height="120" viewBox="0 0 200 120" fill="none" xmlns="http://www.w3.org/2000/svg">
<path d="M193.509 145.458L190.961 144.569L184.27 142.327C161.667 134.759 135.376 132.688 108.949 136.389C98.4293 137.863 75.2838 144.825 65.5066 149.454C44.0925 159.597 25.2577 173.957 11.5617 190.586L7.05176 196.06L5.53814 198.087L4.03134 200.112L98.1215 173.768L199.118 148.045L193.509 145.458ZM188.771 140.065C183.852 137.128 174.694 133.451 167.099 131.362L161.07 129.705L154.134 106.684L147.198 83.6634L148.815 80.7708L150.432 77.8782L147.554 68.3238L144.675 58.7694L141.033 59.789C136.737 60.992 135.786 62.3132 136.798 65.6741C137.158 66.8691 137.194 67.9176 136.879 68.006C136.563 68.0944 135.864 66.7023 135.325 64.9142L134.345 61.6618L131.016 62.5939C129.186 63.1063 127.474 63.9327 127.213 64.4288C126.952 64.925 127.083 66.4763 127.504 67.8743C128.203 70.1924 128.143 70.4538 126.836 70.8198C125.48 71.1996 125.348 71.0447 124.422 67.969L123.442 64.7165L119.999 65.6805L116.556 66.6444L117.549 69.9406C118.399 72.7609 118.388 73.2497 117.478 73.3222C116.797 73.3764 116.166 72.7865 115.725 71.6826C114.011 67.397 113.966 67.3715 110.233 68.4168C108.328 68.9501 106.88 69.6403 106.979 69.9692C107.077 70.2946 108.578 70.1627 110.313 69.6769L113.469 68.7933L114.359 71.7501L115.25 74.7069L117.259 74.1446L119.267 73.5822L118.376 70.6255L117.485 67.6687L120.354 66.8654L123.223 66.0621L124.114 69.0189L125.005 71.9757L127.3 71.333L129.595 70.6904L128.704 67.7336L127.813 64.7768L130.969 63.8932L134.125 63.0096L135.027 66.0014L135.928 68.9931L138.313 68.1281C140.69 67.265 140.695 67.2561 140.182 64.5217C139.682 61.8522 139.72 61.7655 141.676 61.218L143.684 60.6557L145.911 68.0476L148.138 75.4395L146.325 76.1483C144.861 76.7213 144.329 76.6219 143.567 75.6382L142.621 74.4193L142.987 75.7607C143.31 76.9472 143.054 77.1858 140.769 77.8255C138.569 78.4416 138.134 78.3735 137.83 77.3658C137.634 76.715 137.216 76.2553 136.9 76.3437C136.584 76.4321 136.487 77.0363 136.683 77.6871C136.986 78.6949 136.657 78.9768 134.457 79.5928C132.172 80.2326 131.823 80.1632 131.436 78.9948L131 77.6733L130.881 79.1502C130.786 80.3419 130.313 80.753 128.43 81.2802C126.548 81.8073 125.92 81.7041 125.177 80.7473L124.257 79.5613L124.622 80.9027C124.945 82.0892 124.689 82.3278 122.404 82.9676C120.204 83.5836 119.769 83.5156 119.466 82.5078C119.269 81.857 118.851 81.3974 118.535 81.4858C118.22 81.5742 118.122 82.1783 118.318 82.8291C118.622 83.8369 118.292 84.1188 116.092 84.7348C113.807 85.3746 113.459 85.3053 113.072 84.1368L112.635 82.8154L112.515 84.3288C112.412 85.6306 112.044 85.9138 109.895 86.3448C107.668 86.7919 107.347 86.6863 106.95 85.3689C106.62 84.2737 106.796 83.8356 107.629 83.6819C110.136 83.2171 111.012 81.8904 110.255 79.7064C109.221 76.7345 108.338 76.553 109.224 79.494C109.954 81.9155 109.933 81.9669 107.958 82.5197C105.96 83.0792 105.946 83.0681 105.148 80.421L104.347 77.7599L106.642 77.1172C107.905 76.7636 108.866 76.2384 108.779 75.9497C108.692 75.661 108.18 75.588 107.64 75.7867C106.9 76.0604 106.459 75.6356 105.837 74.0433C104.8 71.3893 103.163 70.5461 100.169 71.1209C96.6896 71.7877 96.1474 70.0309 98.8656 66.9003C100.01 65.5839 101.357 63.5239 101.859 62.3248C102.769 60.1576 102.752 60.077 99.3112 48.6576C96.1393 38.1304 95.7657 37.1897 94.8312 37.4058C91.4575 38.1835 86.3395 40.0149 85.6676 40.6868C85.0106 41.3412 82.2727 39.1274 69.3854 27.5204L53.8912 13.5662L51.8527 6.80065L49.8147 0.0368119L44.5126 1.54414L39.2105 3.05147L41.341 4.00682C42.5119 4.5327 43.3811 5.08992 43.2705 5.24802C43.1598 5.40612 42.4997 6.32514 41.8038 7.29024L40.5382 9.04661L44.9198 7.8198L49.3064 6.59157L50.3681 10.1152C51.4271 13.6301 51.4175 13.6897 46.6795 32.9787C44.0656 43.6157 42.0036 52.5653 42.0938 52.8645C42.1839 53.1636 42.8602 53.551 43.5966 53.7223C44.6836 53.9758 45.1175 54.6397 45.9087 57.2658C46.4443 59.0434 47.1404 60.425 47.4561 60.3366C47.7804 60.2458 47.5249 58.4999 46.8718 56.3322L45.7136 52.4884L50.304 51.2031L54.8943 49.9178L56.0525 53.7616C57.1131 57.2818 57.3125 57.5769 58.4244 57.2656C59.5601 56.9476 59.5481 56.6816 58.2579 53.1877C57.4984 51.1314 57.1209 49.524 57.4201 49.6128C57.7176 49.7022 58.4386 51.3557 59.0211 53.289C59.8434 56.0183 60.2714 56.7484 60.9403 56.5611C61.6176 56.3715 61.5537 55.4996 60.6428 52.4764L59.4847 48.6325L64.075 47.3473L68.6653 46.062L69.8235 49.9058C70.7344 52.9291 71.165 53.6983 71.8423 53.5086C72.4976 53.3251 72.4807 52.5236 71.7758 50.1598C71.2664 48.4508 70.9797 46.5827 71.1382 46.009C71.3398 45.279 71.79 46.1623 72.6392 48.9562C73.3253 51.2152 74.1002 52.8764 74.4244 52.7857C74.7486 52.6949 74.4932 50.9489 73.84 48.7812L72.6819 44.9374L77.2722 43.6521L81.8626 42.3668L83.0207 46.2107L84.1789 50.0545L86.761 49.3315L89.343 48.6085L88.1849 44.7647L87.0267 40.9209L90.7581 39.8762L94.4877 38.8319L97.4276 48.5892L100.368 58.3466L97.1574 59.2454C94.4293 60.0093 93.8493 59.9782 93.2904 59.0457C92.9296 58.4409 92.4061 58.0108 92.1277 58.0887C91.8492 58.1667 91.7803 58.7627 91.9764 59.4136C92.2895 60.4528 91.9508 60.7032 89.1769 61.4799C86.403 62.2566 85.9778 62.2201 85.6647 61.1808C85.2029 59.6482 84.2777 59.9072 84.3507 61.5487C84.3987 62.6243 83.9245 62.9506 81.1964 63.7144C78.3699 64.5058 77.9436 64.4715 77.6299 63.4305C77.4338 62.7797 77.0155 62.3201 76.6997 62.4085C76.384 62.4969 76.2862 63.101 76.4823 63.7518C76.7991 64.8033 76.4567 65.0415 73.3959 65.8985C70.3351 66.7555 69.9136 66.7312 69.5968 65.6797C69.4007 65.0289 68.9824 64.5693 68.6666 64.6577C68.3509 64.7461 68.2531 65.3502 68.4492 66.0011C68.7629 67.0421 68.4236 67.2907 65.631 68.0726C62.8945 68.8388 62.3382 68.8011 61.6067 67.8031L60.757 66.6447L60.8191 68.0236C60.8722 69.2324 60.4839 69.5138 57.6709 70.3014C54.8444 71.0928 54.418 71.0585 54.1044 70.0175C53.9083 69.3667 53.49 68.9071 53.1742 68.9955C52.8585 69.0839 52.7607 69.688 52.9568 70.3389C53.2657 71.3641 52.9312 71.6285 50.4442 72.3249C47.638 73.1106 47.5631 73.0879 47.0407 71.3541C46.5114 69.5975 46.5384 69.571 49.662 68.6964C51.3987 68.2101 52.7377 67.5468 52.6397 67.2214C52.5416 66.896 51.0406 67.0279 49.3057 67.5137L46.1498 68.3973L43.9226 61.0054L41.6954 53.6134L36.7842 54.9886L31.873 56.3637L35.5489 67.9222L39.2248 79.4806L43.3186 81.6184C48.4831 84.3158 48.8096 85.2223 45.088 86.5318C41.7059 87.7216 40.72 89.172 41.3346 92.0487C41.5873 93.2357 41.5056 94.4064 41.1518 94.6497C40.6885 94.9691 40.2281 94.1684 39.5117 91.7907L38.517 88.4893L35.188 89.4214C33.358 89.9338 31.6465 90.7602 31.3855 91.2563C31.1245 91.7525 31.255 93.3038 31.6762 94.7017C32.3235 96.8502 32.2644 97.2955 31.2951 97.5669C30.2867 97.8493 30.0289 97.4946 29.1675 94.6358L28.1875 91.3834L24.7448 92.3473C22.8316 92.883 21.3811 93.5737 21.4802 93.9026C21.5783 94.228 23.0793 94.0961 24.8143 93.6104L27.9701 92.7267L28.861 95.6835L29.7519 98.6403L31.7602 98.078L33.7684 97.5157L32.8776 94.5589L31.9867 91.6021L35.1425 90.7185L38.2984 89.8349L39.1893 92.7916L40.0802 95.7484L42.3754 95.1058L44.6705 94.4631L43.7796 91.5064L42.8887 88.5496L45.4708 87.8266L48.0529 87.1037L50.1019 93.9042C51.229 97.6448 52.2755 100.886 52.4291 101.109C52.5827 101.331 51.8407 101.85 50.7813 102.263C49.4287 102.789 48.5425 102.762 47.7983 102.174C46.8309 101.407 46.7665 101.419 47.0422 102.334C47.2804 103.125 46.8039 103.486 44.7616 104.058C42.8484 104.594 42.1105 104.552 41.9123 103.894C41.7652 103.406 41.387 103.079 41.0712 103.168C40.7555 103.256 40.6176 103.727 40.7647 104.215C41.1801 105.594 36.1475 106.853 35.3775 105.563C34.8312 104.647 34.8159 104.652 35.0482 105.655C35.2458 106.506 34.7508 106.861 32.4658 107.501C30.2555 108.12 29.5136 108.083 29.0641 107.33C28.5178 106.415 28.5025 106.419 28.7348 107.422C29.066 108.846 23.9694 110.43 23.5492 109.036C23.4021 108.548 23.0239 108.221 22.7081 108.309C22.3924 108.398 22.2546 108.869 22.4016 109.357C22.817 110.736 17.7844 111.995 17.0144 110.704C16.4681 109.789 16.4528 109.793 16.6851 110.796C17.0598 112.406 12.4803 113.6 12.0032 112.016C11.6052 110.695 12.3615 109.998 14.5755 109.642C15.4618 109.498 16.1139 109.139 16.0243 108.841C15.9347 108.544 14.8298 108.591 13.5667 108.945L11.2716 109.588L10.4698 106.927C9.69749 104.364 9.73248 104.248 11.3893 103.784C12.3366 103.518 13.0332 103.044 12.9383 102.73C12.8435 102.415 12.4248 102.418 12.0075 102.738C11.4154 103.192 11.095 102.819 10.5436 101.044C9.42457 97.4337 8.30226 96.953 3.87998 98.1912L0.0705431 99.2579L2.91294 108.692L5.75534 118.125L8.48393 119.636C9.98454 120.468 11.4349 121.084 11.7049 121.009C11.9765 120.933 15.1904 131.05 18.8501 143.489L25.5014 166.108L21.5836 170.267C16.3093 175.868 12.2432 181.514 9.43673 187.138C7.96688 190.086 7.6713 191.011 8.638 189.65C18.9328 175.155 32.5903 163.194 49.7476 153.647C62.894 146.331 82.3632 139.166 98.0642 135.863C129.919 129.164 158.422 130.403 184.863 139.638L192.565 142.328L188.771 140.065ZM154.325 128.72C150.775 127.97 140.205 127.293 132.375 127.315C126.677 127.33 125.152 127.163 126.716 126.691C130.13 125.663 128.832 124.77 125.342 125.748L122.186 126.631L120.592 121.339L118.997 116.046L121.821 115.062C126.302 113.5 125.088 112.692 120.06 113.891L115.56 114.964L114.176 110.371C113.35 107.629 112.958 105.29 113.206 104.566C113.544 103.57 113.852 104.262 114.934 108.449L116.25 113.545L120.389 112.386L124.527 111.227L122.991 106.905C121.172 101.783 119.629 100.415 116.623 101.257L114.703 101.794L113.456 97.6548L112.208 93.5153L125.12 89.9C133.345 87.5971 137.968 86.0695 137.854 85.6933C137.741 85.3172 132.989 86.4143 124.764 88.7173C113.67 91.8235 111.815 92.2084 111.585 91.4456C111.353 90.6775 113.55 89.9335 127.959 85.8989L144.601 81.2393L151.83 105.231L159.059 129.223L157.643 129.174C156.864 129.143 155.371 128.941 154.325 128.72ZM147.149 119.64C146.856 119.369 144.824 119.65 142.634 120.263C140.36 120.899 138.727 121.632 138.829 121.969C138.933 122.312 140.836 122.049 143.345 121.346C146.09 120.578 147.486 119.951 147.149 119.64ZM135.216 117.21C135.325 116.779 134.087 116.885 131.916 117.493C129.98 118.035 128.518 118.729 128.617 119.058C128.715 119.383 130.201 119.255 131.917 118.775C133.633 118.294 135.118 117.59 135.216 117.21ZM143.764 108.4C144.037 107.332 142.434 107.407 138.832 108.63C136.841 109.305 135.548 110.059 135.539 110.548C135.522 111.55 143.49 109.469 143.764 108.4ZM141.428 101.684C139.903 96.6223 138.362 95.1679 135.403 95.9964C132.648 96.7679 132.038 99.4371 133.506 104.31L134.73 108.37L138.746 107.246L142.763 106.121L141.428 101.684ZM131.997 106.612C132.245 105.642 131.412 105.632 128.329 106.567C126.639 107.08 125.52 107.739 125.509 108.224C125.488 109.194 131.733 107.643 131.997 106.612ZM139.232 91.128C139.889 89.8799 137.95 90.1516 129.665 92.4712C123.995 94.0587 120.16 95.3887 120.055 95.8032C119.958 96.1833 120.093 96.4547 120.357 96.4074C122.432 96.037 139.103 91.3728 139.232 91.128ZM36.194 152.249C36.2293 151.7 37.0691 151.103 38.2795 150.764C39.3948 150.452 40.2264 149.931 40.1283 149.605C40.0302 149.28 38.918 149.303 37.655 149.656L35.3598 150.299L33.8453 145.272L32.3308 140.246L34.6259 139.603C36.2845 139.139 36.8468 138.714 36.6538 138.074C36.5068 137.586 36.1931 137.241 35.9559 137.309C35.7199 137.375 35.0552 135.615 34.4813 133.393C33.3204 128.91 31.9025 126.941 29.5775 126.587C28.4315 126.413 28.01 125.948 27.7274 124.54C27.3154 122.495 27.0191 122.648 36.898 119.779C39.823 118.93 41.8309 118.079 41.7271 117.735C41.6174 117.371 38.6799 117.947 34.0896 119.232L26.6303 121.32L26.0957 119.546L25.5612 117.772L40.1946 113.675C49.5672 111.051 54.7637 109.364 54.6499 108.986C54.536 108.608 49.2108 109.868 39.8383 112.492C25.5885 116.482 25.1954 116.558 24.8485 115.407C24.5016 114.256 24.8741 114.117 39.0577 110.146C53.1411 106.203 53.645 106.103 54.28 107.166C54.8008 108.039 55.419 108.13 57.2863 107.607C60.3913 106.738 60.6388 107.822 57.587 108.929C55.3832 109.728 55.2443 109.915 55.7588 111.402C56.2908 112.942 56.1981 113.043 53.5566 113.783C50.9983 114.499 49.1493 116.226 51.5023 115.701C52.0822 115.573 53.4739 115.256 54.5943 114.997C56.5615 114.543 56.6559 114.606 57.3687 116.886C58.1026 119.23 58.1227 119.241 60.5757 118.75C63.7179 118.121 64.1358 119.159 61.0851 120.013C59.6591 120.412 58.8539 120.941 58.9603 121.411C59.0538 121.825 59.3245 122.955 59.5609 123.923C59.9527 125.523 59.8084 125.728 57.9717 126.206C53.778 127.299 53.9663 127.368 53.0675 124.385C52.0622 121.048 49.7846 119.33 47.2908 120.028C44.3369 120.855 43.9005 122.871 45.5125 128.221L46.9379 132.952L50.9545 131.827C54.1426 130.934 54.9157 130.519 54.7037 129.815C54.4982 129.133 55.1733 128.722 57.628 128.035C60.3238 127.28 60.8527 127.306 61.0297 128.205C61.4817 130.5 61.828 130.708 64.113 130.068C65.376 129.715 66.4883 129.692 66.5863 130.017C66.6844 130.343 65.7476 130.893 64.5033 131.242C62.3049 131.857 62.2554 131.937 62.7322 134.143L63.2224 136.411L60.2629 137.434C58.6356 137.996 57.3751 138.694 57.4632 138.986C57.5512 139.278 59.0035 139.217 60.6899 138.851C63.6569 138.208 63.7738 138.242 64.2836 139.933C64.9541 142.159 64.0013 142.778 56.6116 144.933C52.396 146.161 51.0916 146.75 51.2698 147.341C51.4216 147.845 49.3873 149.359 45.5513 151.596C42.2756 153.506 39.1395 155.408 38.5803 155.825C37.7245 156.461 37.4507 156.31 36.8513 154.877C36.4552 153.935 36.1607 152.755 36.194 152.249ZM47.1316 141.873C47.0335 141.548 45.5325 141.679 43.7976 142.165C42.0626 142.651 40.7218 143.315 40.8199 143.64C40.9179 143.966 42.419 143.834 44.1539 143.348C45.8889 142.862 47.2296 142.198 47.1316 141.873ZM55.589 132.772C55.3518 131.985 54.6421 132.049 51.1978 133.172C48.9384 133.909 47.1693 134.777 47.2673 135.102C47.3654 135.427 49.3417 135.248 51.6585 134.701C55.1914 133.872 55.8262 133.559 55.589 132.772ZM43.9434 131.292C43.8559 131.001 43.3266 130.717 42.7679 130.659C40.5905 130.434 37.3021 131.971 37.63 133.059C37.7175 133.35 39.2101 133.19 40.945 132.704C42.68 132.218 44.0309 131.582 43.9434 131.292ZM107.116 129.792C104.302 130.216 103.947 130.12 103.556 128.82C103.165 127.523 102.956 127.466 101.517 128.248L99.9132 129.121L98.745 125.244L97.5768 121.367L99.4052 121.24C101.232 121.113 101.233 121.109 100.387 118.303C99.5415 115.497 99.5392 115.496 97.926 116.33L96.3117 117.168L95.1577 113.338L94.0038 109.508L95.7252 109.026C97.3515 108.571 97.407 108.413 96.7338 106.179C96.0691 103.972 95.9158 103.848 94.4666 104.336C93.1342 104.783 93.1082 104.843 94.2814 104.754C95.3285 104.673 95.7731 105.055 96.1727 106.381C96.6081 107.826 96.4608 108.181 95.2861 108.51C94.1062 108.84 93.7113 108.562 92.8454 106.787C91.1709 103.35 90.7538 102.833 87.9705 100.713C85.7541 99.0271 85.3829 98.4974 85.7202 97.5093C86.242 95.9783 86.5293 95.9301 88.476 97.0451C90.0355 97.9383 90.065 98.0117 89.2762 99.0654C88.8262 99.6676 88.7339 100.082 89.0718 99.9877C89.4096 99.8932 89.8906 99.3145 90.1427 98.7033C90.5267 97.7724 90.25 97.3793 88.4562 96.3013C86.6869 95.2372 86.199 95.1822 85.6606 95.9856C85.1174 96.7978 85.019 96.7704 85.0737 95.8217C85.1215 94.9906 84.5944 94.5671 83.1032 94.2429C80.7566 93.7312 79.4736 94.4339 80.0268 95.9276C80.3869 96.8968 80.4078 96.8929 80.3619 95.8547C80.3033 94.5544 80.7421 94.3671 82.9627 94.7356C84.3405 94.9645 84.5637 95.2227 84.349 96.349C84.1651 97.3149 84.2367 97.5282 84.6042 97.1104C84.884 96.793 85.1945 96.7971 85.2926 97.1225C85.6389 98.272 84.7093 98.5285 81.0027 98.299C75.3269 97.9493 70.9756 100.712 68.8058 106.042C67.2283 109.915 67.6331 112.841 71.595 126.167C73.5595 132.779 74.9383 137.893 74.6565 137.532C74.3746 137.171 73.6712 137.005 73.0924 137.167C72.5135 137.329 72.011 137.83 71.9742 138.283C71.9375 138.735 71.6973 138.482 71.4421 137.72C71.0415 136.531 71.194 136.335 72.5224 136.308C73.4134 136.29 73.9917 136.022 73.8873 135.675C73.7877 135.345 73.0609 135.254 72.2715 135.475C70.9541 135.844 70.7716 135.66 70.0352 133.216C69.2856 130.728 69.3354 130.52 70.7853 130.023L72.3372 129.492L70.6841 129.687C69.168 129.867 68.9661 129.668 68.2408 127.26C67.5044 124.816 67.5559 124.602 69.003 124.108L70.5549 123.577L68.9018 123.772C67.3857 123.952 67.1838 123.752 66.459 121.347C65.7352 118.945 65.7893 118.69 67.1033 118.322C67.8927 118.101 68.4487 117.625 68.3401 117.265C68.2183 116.861 67.6356 116.906 66.8197 117.381C65.5562 118.118 65.4611 118.035 64.7031 115.519C63.9413 112.991 63.9807 112.853 65.7016 112.118C67.3294 111.424 67.3625 111.344 66.065 111.26C64.4557 111.154 64.0633 110.365 64.3762 107.866C64.5595 106.403 64.8695 106.125 66.4593 106C68.2379 105.861 68.2605 105.826 66.9202 105.245C65.5442 104.65 65.5428 104.584 66.8138 102.198C68.0697 99.8409 68.1523 99.7912 69.28 100.669C69.922 101.168 70.5712 101.343 70.7221 101.056C70.8731 100.769 70.5995 100.307 70.1167 100.03C69.4426 99.6443 69.5299 99.1702 70.4861 98.0184C71.1731 97.1886 71.4254 96.5963 71.0458 96.6988C70.5354 96.8379 69.6031 94.3423 67.4599 87.1071L64.5644 77.3259L79.8852 73.2069L95.2061 69.0879L99.0374 81.8038L102.869 94.5196L101.059 95.2275C100.064 95.6161 99.3193 96.168 99.4047 96.4514C99.4901 96.7349 100.424 96.8167 101.482 96.6306L103.403 96.2937L104.829 101.025L106.254 105.755L104.444 106.463C103.45 106.852 102.705 107.404 102.79 107.687C102.875 107.971 103.809 108.052 104.867 107.866C106.775 107.532 106.796 107.552 108.025 111.004C109.829 116.067 109.773 117.274 107.708 117.852C105.398 118.499 105.843 119.524 108.252 119.102L110.174 118.765L111.575 122.799C113.681 128.866 113.725 128.797 107.116 129.792ZM102.169 124.218C101.519 122.059 101.18 121.619 100.377 121.886C99.7859 122.082 99.7121 122.252 100.194 122.311C101.479 122.465 102.365 126.26 101.269 126.914C100.575 127.328 100.672 127.392 101.659 127.173C102.837 126.91 102.888 126.605 102.169 124.218ZM73.0465 133.746C73.1495 132.133 72.1562 130.73 70.9739 130.821C70.0655 130.891 70.0079 131.231 70.6387 132.781C71.4582 134.792 72.9423 135.386 73.0465 133.746ZM70.9015 128.344C71.817 127.674 70.9047 125.165 69.7003 125.042C68.186 124.885 68.1626 124.93 68.7293 126.81C69.2885 128.672 69.8803 129.091 70.9015 128.344ZM98.6058 112.391C97.844 109.863 97.7269 109.756 96.2494 110.253C94.8371 110.728 94.8262 110.765 96.1224 110.662C97.3808 110.562 97.6067 110.829 98.0323 112.926C98.2989 114.232 98.7166 115.246 98.9611 115.177C99.2072 115.108 99.0482 113.853 98.6058 112.391ZM69.4549 122.382C69.6048 122.097 69.4993 121.112 69.2215 120.19C68.8303 118.892 68.4499 118.589 67.5332 118.845C66.5486 119.121 66.4738 119.483 67.0939 121.004C67.8207 122.787 68.9083 123.421 69.4549 122.382ZM67.4692 114.374C67.0533 112.994 66.68 112.672 65.7871 112.922C64.8942 113.172 64.7581 113.637 65.1741 115.017C65.59 116.397 65.9632 116.72 66.8562 116.47C67.7491 116.22 67.8851 115.755 67.4692 114.374ZM94.5177 102.954C95.3565 101.962 94.45 102.216 93.0832 103.355C92.4273 103.903 92.3859 104.114 92.9592 103.976C93.4381 103.861 94.1407 103.401 94.5177 102.954ZM67.017 108.902C67.3072 106.584 65.7914 105.586 65.0837 107.63C64.4841 109.367 64.7838 110.404 65.9197 110.521C66.448 110.576 66.89 109.923 67.017 108.902ZM93.4757 100.68C92.2346 98.5956 91.5288 98.41 90.392 99.8666C89.8218 100.595 89.6205 101.118 89.943 101.028C90.2656 100.938 90.7282 100.488 90.9693 100.029C91.2912 99.4175 91.7938 99.5766 92.8517 100.625C94.1925 101.954 94.2363 101.958 93.4757 100.68ZM69.3488 103.268C70.0464 102.302 70.0149 101.996 69.1584 101.395C68.2414 100.753 68.0368 100.85 67.1919 102.341C65.7261 104.923 67.5785 105.719 69.3488 103.268ZM79.138 95.5561C78.7472 93.9903 78.5968 93.9433 76.1438 94.6301C73.4395 95.3873 73.3445 95.5732 74.8117 97.2474C75.6514 98.2075 75.6686 98.1913 75.0674 97.0146C74.5024 95.9093 74.6594 95.6851 76.3367 95.2154C77.8662 94.7872 78.3815 94.9332 78.9006 95.9413C79.457 97.0244 79.4902 96.9695 79.138 95.5561ZM73.6519 97.8947C73.5218 97.4018 73.0454 96.6701 72.5928 96.2675C71.5897 95.3759 71.8712 96.3102 73.0382 97.7459C73.5971 98.4337 73.8059 98.4852 73.6519 97.8947ZM100.315 89.1467C100.206 88.7846 97.3627 89.3321 92.9642 90.5636C88.5639 91.7957 85.8608 92.8011 85.9699 93.1632C86.079 93.5254 88.922 92.9779 93.3205 91.7463C97.719 90.5148 100.424 89.5089 100.315 89.1467ZM89.8035 79.0411C88.6079 75.0731 88.0673 73.9875 87.0436 73.4982C85.0525 72.5474 83.628 72.6276 82.3254 73.7663C80.7748 75.1206 80.7133 77.7882 82.124 82.47L83.2558 86.2263L87.2723 85.1017L91.2889 83.9771L89.8035 79.0411ZM81.93 85.9563C81.832 85.6309 81.1067 85.5456 80.3174 85.7666C79.528 85.9876 78.963 86.4342 79.0611 86.7596C79.1591 87.085 79.8843 87.1703 80.6737 86.9493C81.4631 86.7283 82.0281 86.2817 81.93 85.9563ZM76.6857 83.0062C75.002 77.418 73.5009 75.9184 70.452 76.7721C67.4031 77.6258 66.9694 79.669 68.6526 85.2554L70.0585 89.9215L74.0751 88.7969L78.0916 87.6723L76.6857 83.0062ZM95.5729 74.4415C95.6811 74.0185 94.7191 74.0393 93.0996 74.4927C91.4783 74.9467 90.6561 75.4254 90.9826 75.7267C91.2758 75.9975 92.3881 75.9744 93.4559 75.6754C94.5237 75.3765 95.4757 74.8215 95.5729 74.4415ZM79.7919 78.8601C79.6938 78.5346 78.9686 78.4493 78.1792 78.6703C77.3898 78.8914 76.8249 79.3379 76.9229 79.6633C77.021 79.9888 77.7462 80.0741 78.5356 79.8531C79.325 79.632 79.8899 79.1855 79.7919 78.8601ZM101.398 130.779C100.001 130.635 99.8938 129.881 101.159 129.125C102.296 128.444 103.288 128.957 103.001 130.077C102.795 130.888 102.729 130.916 101.398 130.779ZM98.3685 120.726C96.2181 120.504 96.4553 117.162 98.6639 116.543C98.9541 116.462 99.4706 117.327 99.8137 118.466C100.444 120.556 100.215 120.916 98.3685 120.726ZM25.5369 136.216C24.8382 133.854 24.4037 131.251 24.5734 130.434C24.8312 129.181 25.1483 129.831 26.5626 134.525C27.7888 138.594 28.0507 140.16 27.5261 140.307C27.0152 140.45 26.4399 139.268 25.5369 136.216ZM54.121 102.081C54.2231 101.68 57.2956 100.551 61.4361 99.3913C65.8125 98.1659 68.6436 97.6218 68.7527 97.9839C68.8624 98.3478 66.0501 99.3819 61.4377 100.673C56.5876 102.031 54.0051 102.527 54.121 102.081ZM54.7929 88.823C53.6174 84.9215 53.4521 83.6397 54.0095 82.7893C54.6533 81.8103 54.6936 81.8522 54.4306 83.2462C54.2622 84.1414 54.7122 86.4229 55.5097 88.7153L56.8787 92.648L60.7111 91.9449L64.5436 91.2418L60.4133 92.5083L56.2831 93.7748L54.7912 88.8235L54.7929 88.823ZM46.4891 79.8485C46.1385 78.685 46.5147 78.5588 69.9129 72.0075C85.1472 67.7419 93.8841 65.5252 94.226 65.8412C94.5193 66.1119 94.6795 66.6438 94.5824 67.0239C94.4693 67.4672 85.86 70.1073 70.6256 74.3729C47.2274 80.9243 46.8396 81.012 46.4891 79.8485ZM62.8518 45.3525L53.8446 47.4665L57.8244 45.1873C60.0127 43.9334 63.3638 42.2742 65.2695 41.4997C67.1751 40.7251 68.6731 39.8864 68.5966 39.6328C68.3805 38.9154 59.8424 40.625 55.5254 42.2492C53.3844 43.0554 51.7155 43.5588 51.8133 43.3701C52.395 42.2644 59.7579 37.6378 62.9746 36.3577C66.1909 35.0758 66.5298 34.8197 65.1966 34.6656C64.331 34.5665 61.1659 35.1567 58.1621 35.9769L52.7005 37.4681L54.7757 35.7166C55.9177 34.7537 58.4114 33.3402 60.3197 32.5744C63.2417 31.4034 63.5438 31.1595 62.2314 31.0318C61.374 30.9474 58.7099 31.5264 56.3082 32.3165L51.9421 33.7534L53.4787 32.2247C54.3246 31.3845 56.1936 30.1706 57.6352 29.5298C59.0768 28.8891 60.3132 28.1293 60.3865 27.8413C60.5772 27.0935 55.539 27.7965 53.7249 28.7712C52.2613 29.5585 52.2318 29.5402 53.0353 28.3458C53.8811 27.0902 56.6431 25.1558 58.7111 24.37C59.3257 24.1372 58.2281 24.2149 56.2741 24.542C54.2783 24.8769 53.0442 24.8563 53.4601 24.4951C53.8673 24.1421 54.8761 23.3113 55.7048 22.6524L57.21 21.4531L54.7973 21.7056L52.3846 21.9581L54.1111 20.9738C56.0664 19.8572 56.1689 18.7737 54.2676 19.306C53.0385 19.6502 53.0293 19.6319 53.8618 18.4786C54.6943 17.3254 54.6846 17.3054 53.4468 17.633C52.2821 17.9401 52.1858 17.8039 52.2478 15.9691C52.3034 14.339 52.4887 14.0803 53.2565 14.5635C54.7565 15.5095 79.9752 40.2146 80.1998 40.9599C80.3427 41.434 79.1444 41.8682 76.1317 42.4328C73.7809 42.8786 67.807 44.1908 62.8518 45.3525ZM142.02 73.7377C142.133 73.5241 141.821 72.1411 141.326 70.6633L140.428 67.976L140.791 70.4393C141.142 72.8206 141.071 72.9392 138.679 73.9808C137.317 74.5746 136.481 75.0514 136.821 75.0417C138.221 75.0026 141.831 74.0981 142.02 73.7377ZM134.6 75.7528C134.951 75.0853 133.188 70.3236 132.647 70.4753C132.331 70.5637 132.394 71.6997 132.786 73.0014L133.498 75.3668L131.203 76.0094C129.94 76.363 128.97 76.8567 129.045 77.1069C129.183 77.5693 134.298 76.3229 134.6 75.7528ZM126.494 77.6334C126.524 77.1772 126.136 75.8081 125.632 74.5889L124.716 72.3734L125.377 74.9146L126.037 77.4558L123.36 78.2054C120.118 79.1133 120.496 79.5803 123.949 78.9322C125.585 78.624 126.459 78.1781 126.494 77.6334ZM118.657 80.3248C119.426 79.7869 118.003 74.5737 117.152 74.8118C116.836 74.9002 116.899 76.0362 117.291 77.3379L118.004 79.7033L115.614 80.3725C114.298 80.7409 113.417 81.1544 113.656 81.2907C114.212 81.6093 117.818 80.9126 118.657 80.3248ZM47.3575 99.9658C47.4302 99.6817 46.3273 99.7723 44.9064 100.17L42.3226 100.894L41.3274 98.446C40.4249 96.2267 40.4196 96.27 41.2789 98.9206L42.2257 101.843L44.7253 101.164C46.1001 100.79 47.2831 100.25 47.3575 99.9658ZM39.2964 102.318C39.3832 101.977 38.2925 102.022 36.8716 102.42L34.2878 103.143L33.3113 100.691L32.3348 98.2377L33.0812 101.076C33.4924 102.636 34.027 103.878 34.2698 103.835C37.9908 103.19 39.1638 102.837 39.2964 102.318ZM31.4956 104.434C31.4181 104.176 30.3222 104.254 29.0591 104.607L26.764 105.25L26.0513 102.885C25.6591 101.583 25.0805 100.591 24.7648 100.68C24.1078 100.864 25.561 106.194 26.2442 106.103C28.4591 105.811 31.6089 104.81 31.4956 104.434ZM23.8102 106.627C23.8928 106.302 22.7984 106.36 21.3775 106.758L18.7937 107.482L17.7985 105.034C16.8767 102.769 16.8716 102.801 17.739 105.472L18.6746 108.357L21.1664 107.787C22.5377 107.475 23.7277 106.952 23.8102 106.627ZM23.8814 99.8192C23.7981 99.5427 23.0237 99.5262 22.1582 99.7818C20.8229 100.177 20.4846 99.9886 19.8955 98.5163C18.1793 94.2255 18.1348 94.2 14.4018 95.2452C12.4971 95.7785 11.0483 96.4687 11.1474 96.7977C11.2454 97.1231 12.7312 96.9954 14.4509 96.5139L17.5762 95.6389L18.5976 98.3997C19.609 101.133 19.64 101.157 21.827 100.742C23.0403 100.51 23.9647 100.096 23.8814 99.8192ZM92.8091 55.9761C92.7111 55.6507 91.2101 55.7826 89.4751 56.2684L86.3192 57.152L85.4389 54.2302C84.9544 52.6224 84.251 51.2162 83.8746 51.1034C83.4456 50.975 83.6255 52.3418 84.3593 54.7772L85.528 58.656L89.2576 57.6117C91.361 57.0228 92.9098 56.3103 92.8091 55.9761ZM82.4808 58.868C82.3828 58.5425 80.8818 58.6744 79.1468 59.1602L75.991 60.0438L75.1106 57.1221C74.6262 55.5142 73.9227 54.1081 73.5463 53.9953C73.1174 53.8669 73.2972 55.2337 74.031 57.6691L75.1997 61.5479L78.9294 60.5036C81.0327 59.9147 82.5815 59.2021 82.4808 58.868ZM72.1604 61.7918C72.0676 61.4839 70.611 61.5312 68.9241 61.8954L65.8571 62.5607L64.5783 59.3919C63.3242 56.2864 63.307 56.2722 63.7373 58.6655C63.9784 60.0095 64.4785 61.8159 64.8469 62.6841C65.4951 64.2063 65.6359 64.2276 68.9242 63.3069C70.7961 62.7809 72.2531 62.0997 72.1604 61.7918ZM62.3964 64.4915C62.2984 64.1661 60.7973 64.298 59.0624 64.7838L55.9065 65.6674L54.9265 62.4149C54.3873 60.6251 53.6885 59.2347 53.3728 59.3231C53.0485 59.4139 53.304 61.1599 53.9571 63.3276L55.1153 67.1714L58.8449 66.1271C60.9483 65.5382 62.4971 64.8257 62.3964 64.4915Z" fill="black"/>
</svg>
