<svg width="20" height="20" viewBox="0 0 20 20" fill="none" xmlns="http://www.w3.org/2000/svg">
<path fill-rule="evenodd" clip-rule="evenodd" d="M10.2442 5.24408C9.9188 5.56951 9.9188 6.09715 10.2442 6.42259L13.8217 10L10.2442 13.5774C9.9188 13.9028 9.9188 14.4305 10.2442 14.7559C10.5697 15.0814 11.0973 15.0814 11.4228 14.7559L15.5894 10.5893C15.9149 10.2638 15.9149 9.73618 15.5894 9.41074L11.4228 5.24408C11.0973 4.91864 10.5697 4.91864 10.2442 5.24408Z" fill="#999999"/>
<path fill-rule="evenodd" clip-rule="evenodd" d="M4.41074 5.24408C4.08531 5.56951 4.08531 6.09715 4.41074 6.42259L7.98816 10L4.41074 13.5774C4.08531 13.9028 4.08531 14.4305 4.41074 14.7559C4.73618 15.0814 5.26382 15.0814 5.58925 14.7559L9.75592 10.5893C10.0814 10.2638 10.0814 9.73618 9.75592 9.41074L5.58925 5.24408C5.26382 4.91864 4.73618 4.91864 4.41074 5.24408Z" fill="#999999"/>
</svg>
