<svg width="20" height="20" viewBox="0 0 20 20" fill="none" xmlns="http://www.w3.org/2000/svg">
<path fill-rule="evenodd" clip-rule="evenodd" d="M9.75576 5.24408C10.0812 5.56951 10.0812 6.09715 9.75576 6.42259L6.17835 10L9.75576 13.5774C10.0812 13.9028 10.0812 14.4305 9.75576 14.7559C9.43032 15.0814 8.90269 15.0814 8.57725 14.7559L4.41058 10.5893C4.08514 10.2638 4.08514 9.73618 4.41058 9.41074L8.57725 5.24408C8.90269 4.91864 9.43032 4.91864 9.75576 5.24408Z" fill="#999999"/>
<path fill-rule="evenodd" clip-rule="evenodd" d="M15.5893 5.24408C15.9147 5.56951 15.9147 6.09715 15.5893 6.42259L12.0118 10L15.5893 13.5774C15.9147 13.9028 15.9147 14.4305 15.5893 14.7559C15.2638 15.0814 14.7362 15.0814 14.4107 14.7559L10.2441 10.5893C9.91864 10.2638 9.91864 9.73618 10.2441 9.41074L14.4107 5.24408C14.7362 4.91864 15.2638 4.91864 15.5893 5.24408Z" fill="#999999"/>
</svg>
