<svg width="30" height="34" viewBox="0 0 30 34" fill="none" xmlns="http://www.w3.org/2000/svg">
<path d="M26.4857 0H3.51429C1.57714 0 0 1.53333 0 3.43333V25.9667C0 27.8667 1.57714 29.4 3.51429 29.4H22.9543L22.0457 26.3167L24.24 28.3L26.3143 30.1667L30 33.3333V3.43333C30 1.53333 28.4229 0 26.4857 0ZM19.8686 21.7667C19.8686 21.7667 19.2514 21.05 18.7371 20.4167C20.9829 19.8 21.84 18.4333 21.84 18.4333C21.1371 18.8833 20.4686 19.2 19.8686 19.4167C19.0114 19.7667 18.1886 20 17.3829 20.1333C15.7371 20.4333 14.2286 20.35 12.9429 20.1167C11.9657 19.9333 11.1257 19.6667 10.4229 19.4C10.0286 19.25 9.6 19.0667 9.17143 18.8333C9.12 18.8 9.06857 18.7833 9.01714 18.75C8.98286 18.7333 8.96571 18.7167 8.94857 18.7C8.64 18.5333 8.46857 18.4167 8.46857 18.4167C8.46857 18.4167 9.29143 19.75 11.4686 20.3833C10.9543 21.0167 10.32 21.7667 10.32 21.7667C6.53143 21.65 5.09143 19.2333 5.09143 19.2333C5.09143 13.8667 7.56 9.51667 7.56 9.51667C10.0286 7.71667 12.3771 7.76667 12.3771 7.76667L12.5486 7.96667C9.46286 8.83333 8.04 10.15 8.04 10.15C8.04 10.15 8.41714 9.95 9.05143 9.66667C10.8857 8.88333 12.3429 8.66667 12.9429 8.61667C13.0457 8.6 13.1314 8.58333 13.2343 8.58333C14.28 8.45 15.4629 8.41667 16.6971 8.55C18.3257 8.73333 20.0743 9.2 21.8571 10.15C21.8571 10.15 20.5029 8.9 17.5886 8.03333L17.8286 7.76667C17.8286 7.76667 20.1771 7.71667 22.6457 9.51667C22.6457 9.51667 25.1143 13.8667 25.1143 19.2333C25.1143 19.2333 23.6571 21.65 19.8686 21.7667ZM11.8971 13.9833C10.92 13.9833 10.1486 14.8167 10.1486 15.8333C10.1486 16.85 10.9371 17.6833 11.8971 17.6833C12.8743 17.6833 13.6457 16.85 13.6457 15.8333C13.6629 14.8167 12.8743 13.9833 11.8971 13.9833ZM18.1543 13.9833C17.1771 13.9833 16.4057 14.8167 16.4057 15.8333C16.4057 16.85 17.1943 17.6833 18.1543 17.6833C19.1314 17.6833 19.9029 16.85 19.9029 15.8333C19.9029 14.8167 19.1314 13.9833 18.1543 13.9833Z" fill="#999999"/>
</svg>
