<svg width="33" height="33" viewBox="0 0 33 33" fill="none" xmlns="http://www.w3.org/2000/svg">
<path fill-rule="evenodd" clip-rule="evenodd" d="M5.5 6.875C4.74689 6.875 4.125 7.49689 4.125 8.25V24.75C4.125 25.5031 4.74689 26.125 5.5 26.125H27.5C28.2531 26.125 28.875 25.5031 28.875 24.75V8.25C28.875 7.49689 28.2531 6.875 27.5 6.875H5.5ZM1.375 8.25C1.375 5.97811 3.22811 4.125 5.5 4.125H27.5C29.7719 4.125 31.625 5.97811 31.625 8.25V24.75C31.625 27.0219 29.7719 28.875 27.5 28.875H5.5C3.22811 28.875 1.375 27.0219 1.375 24.75V8.25Z" fill="#999999"/>
<path fill-rule="evenodd" clip-rule="evenodd" d="M1.62367 7.46149C2.05916 6.83937 2.91651 6.68807 3.53863 7.12355L16.5001 16.1966L29.4616 7.12355C30.0837 6.68807 30.9411 6.83937 31.3766 7.46149C31.812 8.0836 31.6607 8.94096 31.0386 9.37644L17.2886 19.0014C16.8152 19.3328 16.185 19.3328 15.7116 19.0014L1.96161 9.37644C1.33949 8.94096 1.18819 8.0836 1.62367 7.46149Z" fill="#999999"/>
</svg>
